<svg width="24" height="24" viewBox="0 0 24 24" fill="none" xmlns="http://www.w3.org/2000/svg">
    <path d="M12.828 3.70793C14.1176 2.00829 15.9103 2 15.9103 2C15.9103 2 16.177 3.59795 14.8959 5.13729C13.528 6.78096 11.9733 6.512 11.9733 6.512C11.9733 6.512 11.6813 5.21931 12.828 3.70793ZM12.1373 7.63136C12.8007 7.63136 14.0319 6.71944 15.6345 6.71944C18.3932 6.71944 19.4784 8.6824 19.4784 8.6824C19.4784 8.6824 17.3559 9.76762 17.3559 12.4008C17.3559 15.3714 20 16.3951 20 16.3951C20 16.3951 18.1517 21.5975 15.6551 21.5975C14.5084 21.5975 13.6169 20.8247 12.4087 20.8247C11.1775 20.8247 9.95568 21.6263 9.1599 21.6263C6.88013 21.6264 4 16.6913 4 12.7244C4 8.82153 6.43784 6.77413 8.72444 6.77413C10.2109 6.77413 11.3645 7.63136 12.1373 7.63136Z" fill="#999999"/>
</svg>